<svg width="12" height="12" viewBox="0 0 12 12" fill="none" xmlns="http://www.w3.org/2000/svg">
<path fill-rule="evenodd" clip-rule="evenodd" d="M11 0H2.75C2.19771 0 1.75 0.447715 1.75 1V9.25C1.75 9.80228 2.19771 10.25 2.75 10.25H11C11.5523 10.25 12 9.80228 12 9.25V1C12 0.447715 11.5523 0 11 0ZM8.9885 5.64162L6.0275 7.33362C5.86685 7.42495 5.6698 7.42417 5.50989 7.33155C5.34997 7.23894 5.25123 7.06841 5.2505 6.88362V3.50012C5.25123 3.31533 5.34997 3.1448 5.50989 3.05219C5.6698 2.95957 5.86685 2.95879 6.0275 3.05012L8.989 4.74212C9.1501 4.83469 9.24942 5.00632 9.24942 5.19212C9.24942 5.37792 9.1501 5.54955 8.989 5.64212L8.9885 5.64162ZM1.25 11.0001H9.75C10.0261 11.0001 10.25 11.2239 10.25 11.5001C10.25 11.7762 10.0261 12.0001 9.75 12.0001H1C0.447715 12.0001 0 11.5524 0 11.0001V2.25008C0 1.97394 0.223858 1.75008 0.5 1.75008C0.776142 1.75008 1 1.97394 1 2.25008V10.7501C1 10.8882 1.11193 11.0001 1.25 11.0001Z" fill="white"/>
</svg>
