<svg width="14" height="14" viewBox="0 0 14 14" fill="none" xmlns="http://www.w3.org/2000/svg">
<path fill-rule="evenodd" clip-rule="evenodd" d="M4.20068 9.62521H1.61584L1.61585 9.62522C0.725044 9.62522 7.62939e-06 8.90019 7.62939e-06 8.00938C7.62939e-06 7.88719 0.0141068 7.76499 0.0414505 7.64579L0.975409 3.35966C1.23474 2.41245 2.10248 1.75065 3.08515 1.75065L7.4375 1.75022C8.64362 1.75022 9.625 2.7316 9.625 3.93772V8.51609C9.625 9.05698 9.4259 9.57651 9.06403 9.9794L5.57514 13.8554C5.46619 13.9763 5.30042 14.0263 5.14405 13.987L4.50147 13.8263C4.10199 13.7268 3.77899 13.4529 3.61536 13.0752C3.45172 12.698 3.47223 12.2754 3.67218 11.9161L4.58349 10.2751C4.69287 10.0777 4.61596 9.90549 4.57794 9.84097C4.53992 9.77603 4.4267 9.62521 4.20068 9.62521ZM14 2.62501V9.62501C14 10.1083 13.6083 10.5 13.125 10.5H10.5V1.75001H13.125C13.6083 1.75001 14 2.1418 14 2.62501Z" fill="#ABA4AC"/>
</svg>
