<svg width="14" height="14" viewBox="0 0 14 14" fill="none" xmlns="http://www.w3.org/2000/svg">
<path fill-rule="evenodd" clip-rule="evenodd" d="M5.94297 0.110594C4.09167 0.497125 2.58401 1.99996 2.19147 3.85048C1.85782 5.42502 2.26959 7.00557 3.3206 8.18717C3.74552 8.66533 4.00474 9.24245 4.08975 9.84382H9.91164C9.99956 9.24529 10.2664 8.65901 10.7034 8.16032C11.4893 7.26429 11.9492 6.11394 11.9492 4.92192C11.9492 1.79978 9.05825 -0.545246 5.94297 0.110594ZM9.8711 5.33211C9.64439 5.33211 9.46094 5.14866 9.46094 4.92196C9.46094 3.56491 8.35664 2.46102 6.99959 2.46102C6.77289 2.46102 6.58944 2.27757 6.58944 2.05086C6.58944 1.82415 6.77289 1.64071 6.99959 1.64071C8.80926 1.64071 10.2813 3.1127 10.2813 4.92196C10.2813 5.14866 10.0978 5.33211 9.8711 5.33211ZM4.12891 11.0743V10.6641H9.87109V11.0743C9.87109 11.6211 9.51016 12.0803 9.01584 12.2401C8.85041 13.206 8.01243 14.0001 7 14.0001C5.98757 14.0001 5.14959 13.206 4.98416 12.2401C4.48984 12.0803 4.12891 11.6211 4.12891 11.0743ZM1.23047 4.92196H0.410156C0.183449 4.92196 0 5.1054 0 5.33211C0 5.55882 0.183449 5.74227 0.410156 5.74227H1.23047C1.45718 5.74227 1.64062 5.55882 1.64062 5.33211C1.64062 5.1054 1.45718 4.92196 1.23047 4.92196ZM0.820313 2.29114L1.4003 2.87113C1.56051 3.03133 1.56051 3.29091 1.4003 3.45111C1.24009 3.61132 0.98052 3.61132 0.820313 3.45111L0.240325 2.87113C0.080118 2.71092 0.080118 2.45135 0.240325 2.29114C0.400532 2.1309 0.660079 2.1309 0.820313 2.29114ZM1.4003 7.21302C1.24009 7.05281 0.98052 7.05278 0.820313 7.21302L0.240325 7.793C0.080118 7.95321 0.080118 8.21278 0.240325 8.37299C0.400532 8.5332 0.660106 8.5332 0.820313 8.37299L1.4003 7.793C1.56051 7.6328 1.56051 7.37322 1.4003 7.21302ZM12.7695 4.92196H13.5898C13.8166 4.92196 14 5.1054 14 5.33211C14 5.55882 13.8166 5.74227 13.5898 5.74227H12.7695C12.5428 5.74227 12.3594 5.55882 12.3594 5.33211C12.3594 5.1054 12.5428 4.92196 12.7695 4.92196ZM13.7597 2.29114C13.5995 2.13093 13.3399 2.13093 13.1797 2.29114L12.5997 2.87113C12.4395 3.03134 12.4395 3.29091 12.5997 3.45112C12.7599 3.61132 13.0195 3.61132 13.1797 3.45112L13.7597 2.87113C13.9199 2.71092 13.9199 2.45135 13.7597 2.29114ZM13.1797 7.21302L13.7597 7.793C13.9199 7.95321 13.9199 8.21279 13.7597 8.37299C13.5995 8.5332 13.3399 8.5332 13.1797 8.37299L12.5997 7.793C12.4395 7.6328 12.4395 7.37322 12.5997 7.21302C12.7599 7.05281 13.0195 7.05281 13.1797 7.21302Z" fill="#ABA4AC"/>
</svg>
