<svg width="14" height="14" viewBox="0 0 14 14" fill="none" xmlns="http://www.w3.org/2000/svg">
<path fill-rule="evenodd" clip-rule="evenodd" d="M12.3594 1.64062H1.64062C1.18125 1.64062 0.875 1.94688 0.875 2.40625V11.5938C0.875 12.0531 1.18125 12.3594 1.64062 12.3594H12.3594C12.8188 12.3594 13.125 12.0531 13.125 11.5938V2.40625C13.125 1.94688 12.8188 1.64062 12.3594 1.64062ZM5.46875 3.9375C5.92812 3.9375 6.23438 4.24375 6.23438 4.70312C6.23438 5.1625 5.92812 5.46875 5.46875 5.46875C5.00938 5.46875 4.70312 5.1625 4.70312 4.70312C4.70312 4.24375 5.00938 3.9375 5.46875 3.9375ZM3.9375 7L2.40625 10.0625H11.5938L8.53125 5.46875L6.23438 8.53125L3.9375 7Z" fill="white"/>
</svg>
