<svg width="14" height="14" viewBox="0 0 14 14" fill="none" xmlns="http://www.w3.org/2000/svg">
<path fill-rule="evenodd" clip-rule="evenodd" d="M9.79932 4.37479H12.3842L12.3841 4.37478C13.275 4.37478 14 5.09981 14 5.99062C14 6.11281 13.9859 6.23501 13.9585 6.35421L13.0246 10.6403C12.7653 11.5875 11.8975 12.2494 10.9149 12.2494L6.5625 12.2498C5.35638 12.2498 4.375 11.2684 4.375 10.0623V5.48391C4.375 4.94302 4.57409 4.42349 4.93597 4.0206L8.42486 0.144619C8.53381 0.0237083 8.69958 -0.0262796 8.85595 0.0130271L9.49853 0.173672C9.89801 0.27322 10.221 0.547085 10.3846 0.92477C10.5483 1.30203 10.5278 1.72458 10.3278 2.08389L9.4165 3.72495C9.30713 3.92233 9.38403 4.09451 9.42206 4.15903C9.46008 4.22397 9.5733 4.37479 9.79932 4.37479ZM0 11.375V4.37499C0 3.89172 0.391731 3.49999 0.875 3.49999H3.5V12.25H0.875C0.391731 12.25 0 11.8582 0 11.375Z" fill="#ABA4AC"/>
</svg>
