<?xml version="1.0" encoding="UTF-8"?>
<svg width="80px" height="80px" viewBox="0 0 80 80" version="1.1" xmlns="http://www.w3.org/2000/svg" xmlns:xlink="http://www.w3.org/1999/xlink">
    <!-- Generator: Sketch 51.3 (57544) - http://www.bohemiancoding.com/sketch -->
    <title>Group</title>
    <desc>Created with Sketch.</desc>
    <defs>
        <linearGradient x1="50%" y1="0%" x2="50%" y2="100%" id="linearGradient-1">
            <stop stop-color="#7857A9" stop-opacity="0.979223279" offset="0%"></stop>
            <stop stop-color="#FF3D57" stop-opacity="0.979223279" offset="100%"></stop>
        </linearGradient>
    </defs>
    <g id="Page-1" stroke="none" stroke-width="1" fill="none" fill-rule="evenodd">
        <g id="01-thumbnail-vidi">
            <g id="Group" transform="translate(-5.000000, -8.000000)">
                <rect id="Rectangle" stroke="#979797" fill="url(#linearGradient-1)" fill-rule="nonzero" transform="translate(45.000000, 48.000000) rotate(90.000000) translate(-45.000000, -48.000000) " x="5.5" y="8.5" width="79" height="79"></rect>
                <path d="M33.981703,44.36172 L36.8148579,44.208619 C37.2195943,44.208619 38.8385399,43.9534506 38.8385399,44.7189558 C38.8385399,45.4844609 37.0172261,45.637562 36.6124897,45.7396293 C32.008613,46.6582356 28.9224979,48.6995827 28.1130251,48.6995827 C27.1517762,48.6995827 27,46.6072019 27,45.9947977 C27,43.5962148 27.8094728,41.0955645 29.5801946,39.4624868 C32.3121653,36.9108028 47.4897806,29.1026499 51.1324083,29.0005826 C52.9537221,28.9495489 54.5220757,32.266738 54.5220757,32.9812095 C54.5220757,34.0018831 53.1560903,35.9921966 52.5995777,36.8597692 C43.5436006,51.4043677 41.8234709,55.9463652 41.7222868,57.4263419 C41.6211027,58.6511502 41.924655,60.743531 43.0376801,60.3862953 C44.4036655,59.9269922 46.7814919,58.6511502 57.3552305,41.7590024 C56.7987179,38.5438806 61.5037787,32.4198391 63.0721322,32.9812095 C65.2981825,33.7467147 64.2863415,40.0748909 51.3853685,57.1201398 C49.7664229,59.2635543 45.0613622,66 42.3293914,66 C40.3057094,66 36.5113056,62.7848782 36.6124897,58.9573523 C36.6630817,56.9160051 37.4725545,52.5271087 47.0850442,36.5025334 L46.9838601,36.400466 C42.4305755,38.5949142 37.7761068,40.8403961 33.8805189,44.2596526 L33.981703,44.36172 Z" id="V" fill="#FFFFFF"></path>
            </g>
        </g>
    </g>
</svg>